<svg xmlns="http://www.w3.org/2000/svg" width="800" height="800" viewBox="0 0 800 800" role="img" aria-label="Discipline Shield Pendant demo asset">
  <rect width="800" height="800" fill="#f7f7f4"/>
  <circle cx="400" cy="392" r="224" fill="#121417"/>
  <path d="M400 92c58 0 105 47 105 105v30h-32v-30c0-40-33-73-73-73s-73 33-73 73v30h-32v-30c0-58 47-105 105-105z" fill="#c8aa63"/>
  <path d="M400 238l136 48v105c0 105-64 166-136 198-72-32-136-93-136-198V286l136-48z" fill="#d8bd75"/>
  <path d="M400 276l96 34v81c0 75-42 120-96 147-54-27-96-72-96-147v-81l96-34z" fill="#111316"/>
  <path d="M390 334h30v134h-30z" fill="#d8bd75"/>
  <path d="M347 382h106v31H347z" fill="#d8bd75"/>
  <path d="M400 590c72-32 136-93 136-198V286l-136-48v352z" fill="#ba9650" opacity=".18"/>
  <ellipse cx="400" cy="680" rx="178" ry="26" fill="#c9ced6" opacity=".45"/>
</svg>
