<svg xmlns="http://www.w3.org/2000/svg" width="800" height="800" viewBox="0 0 800 800" role="img" aria-label="Faith Anchor Gift Set demo asset">
  <rect width="800" height="800" fill="#f8f8f5"/>
  <rect x="160" y="176" width="480" height="420" rx="24" fill="#15171b"/>
  <rect x="190" y="206" width="420" height="360" rx="18" fill="#22262c"/>
  <path d="M400 246c45 0 82 37 82 82 0 34-21 64-51 76v58h58v34H311v-34h58v-58c-30-12-51-42-51-76 0-45 37-82 82-82z" fill="#d6b872"/>
  <circle cx="400" cy="328" r="42" fill="#22262c"/>
  <path d="M286 288c-56 33-86 82-86 140 0 36 13 68 36 95" fill="none" stroke="#d6b872" stroke-width="14" stroke-linecap="round"/>
  <path d="M514 288c56 33 86 82 86 140 0 36-13 68-36 95" fill="none" stroke="#d6b872" stroke-width="14" stroke-linecap="round"/>
  <path d="M252 618h296" stroke="#16181c" stroke-width="36" stroke-linecap="round"/>
  <ellipse cx="400" cy="686" rx="232" ry="25" fill="#c9ced6" opacity=".45"/>
</svg>
